<svg xmlns="http://www.w3.org/2000/svg" width="64" height="64"><g transform="scale(4 4)"><path d="M0 9l0 1 8 4 8-4 0-1-8-4Z" fill="#004464"/><path d="M8 5l0 9 8-4 0-1Z" fill="#002f45"/><path d="M0 9l8 4 8-4-8-4Z" fill="gray"/><path d="M8 7l2 1 2-1-2-1Z" fill="white"/><path d="M4 7l2 1 2-1-2-1Z" fill="white"/><path d="M12 9l2 1 2-1-2-1Z" fill="white"/><path d="M8 9l2 1 2-1-2-1Z" fill="white"/><path d="M4 9l2 1 2-1-2-1Z" fill="white"/><path d="M0 9l2 1 2-1-2-1Z" fill="white"/><path d="M4 11l2 1 2-1-2-1Z" fill="white"/><path d="M8 11l2 1 2-1-2-1Z" fill="white"/><radialGradient id="red" cx="35%" cy="35%" spreadMethod="reflect" r="55%"><stop stop-color="white" offset="0.01"/><stop stop-color="red" offset="0.5"/><stop offset="1" stop-color="#900000"/></radialGradient><radialGradient id="redDark" cx="55%" cy="45%"><stop offset="0" stop-color="#600"/><stop stop-color="black" offset="1"/></radialGradient><radialGradient id="yellowDark" cx="55%" cy="45%"><stop offset="0" stop-color="#665c00"/><stop stop-color="black" offset="1"/></radialGradient><radialGradient id="green" cx="35%" cy="35%" spreadMethod="reflect" r="55%"><stop stop-color="white" offset="0.01"/><stop stop-color="lime" offset="0.5"/><stop offset="1" stop-color="green"/></radialGradient><radialGradient id="yellow" cx="35%" cy="35%" spreadMethod="reflect" r="55%"><stop stop-color="white" offset="0.01"/><stop stop-color="yellow" offset="0.5"/><stop offset="1" stop-color="#b4b400"/></radialGradient><circle r="3" transform="scale(1 0.5) translate(9 15.5)" fill="url(#yellowDark)" opacity="0.5"/><circle r="1.5" transform="scale(1 0.5) translate(4.5 18.75)" fill="url(#redDark)" opacity="0.5"/><circle r="1" transform="scale(1 0.5) translate(11.25 20.125)" fill="black" opacity="0.25"/><circle r="3" cx="8" cy="6" fill="url(#yellow)" stroke="#b4b400" stroke-width="0.2" stroke-opacity="0"/><circle r="1.5" cx="4" cy="8.5" fill="url(#red)" stroke="#900000" stroke-width="0.2" stroke-opacity="0"/><circle r="1" cx="9" cy="8" fill="url(#green)" stroke="green" stroke-width="0.2" stroke-opacity="0"/></g></svg>